<mxfile host="app.diagrams.net" agent="Mozilla/5.0 (Macintosh; Intel Mac OS X 10_15_7) AppleWebKit/537.36 (KHTML, like Gecko) Chrome/131.0.0.0 Safari/537.36" version="26.0.3">
  <diagram name="Page-1" id="ppDWNuSZf4CIT6eY6HD5">
    <mxGraphModel dx="2195" dy="2044" grid="1" gridSize="10" guides="1" tooltips="1" connect="1" arrows="1" fold="1" page="1" pageScale="1" pageWidth="827" pageHeight="1169" math="1" shadow="0">
      <root>
        <mxCell id="0" />
        <mxCell id="1" parent="0" />
        <mxCell id="b5ZvEWZHJdZfXE5YK8wL-39" value="" style="ellipse;whiteSpace=wrap;html=1;aspect=fixed;fillColor=#DECCFF;strokeColor=#82b366;" parent="1" vertex="1">
          <mxGeometry x="950" y="50" width="360" height="360" as="geometry" />
        </mxCell>
        <mxCell id="b5ZvEWZHJdZfXE5YK8wL-23" value="" style="ellipse;whiteSpace=wrap;html=1;aspect=fixed;fillColor=#ffe6cc;strokeColor=#d79b00;" parent="1" vertex="1">
          <mxGeometry x="513" y="50" width="360" height="360" as="geometry" />
        </mxCell>
        <mxCell id="b5ZvEWZHJdZfXE5YK8wL-9" value="" style="ellipse;whiteSpace=wrap;html=1;aspect=fixed;fillColor=#f5f5f5;strokeColor=#666666;fontColor=#333333;" parent="1" vertex="1">
          <mxGeometry x="81" y="50" width="360" height="360" as="geometry" />
        </mxCell>
        <mxCell id="b5ZvEWZHJdZfXE5YK8wL-8" value="" style="edgeStyle=orthogonalEdgeStyle;rounded=0;orthogonalLoop=1;jettySize=auto;html=1;" parent="1" source="b5ZvEWZHJdZfXE5YK8wL-2" target="b5ZvEWZHJdZfXE5YK8wL-5" edge="1">
          <mxGeometry relative="1" as="geometry" />
        </mxCell>
        <mxCell id="b5ZvEWZHJdZfXE5YK8wL-2" value="&lt;font style=&quot;font-size: 16px;&quot;&gt;$$t$$&lt;/font&gt;" style="rounded=1;whiteSpace=wrap;html=1;fillColor=#f8cecc;strokeColor=#b85450;" parent="1" vertex="1">
          <mxGeometry x="130" y="140" width="80" height="40" as="geometry" />
        </mxCell>
        <mxCell id="b5ZvEWZHJdZfXE5YK8wL-7" value="" style="edgeStyle=orthogonalEdgeStyle;rounded=0;orthogonalLoop=1;jettySize=auto;html=1;" parent="1" source="b5ZvEWZHJdZfXE5YK8wL-4" target="b5ZvEWZHJdZfXE5YK8wL-6" edge="1">
          <mxGeometry relative="1" as="geometry" />
        </mxCell>
        <mxCell id="b5ZvEWZHJdZfXE5YK8wL-4" value="$$s$$" style="rounded=1;whiteSpace=wrap;html=1;fillColor=#d5e8d4;strokeColor=#82b366;" parent="1" vertex="1">
          <mxGeometry x="130" y="280" width="80" height="40" as="geometry" />
        </mxCell>
        <mxCell id="b5ZvEWZHJdZfXE5YK8wL-5" value="Unimodal tokenization + encoding" style="rounded=1;whiteSpace=wrap;html=1;fillColor=#f8cecc;strokeColor=#b85450;" parent="1" vertex="1">
          <mxGeometry x="250" y="100" width="120" height="120" as="geometry" />
        </mxCell>
        <mxCell id="b5ZvEWZHJdZfXE5YK8wL-6" value="Unimodal tokenization + encoding" style="rounded=1;whiteSpace=wrap;html=1;fillColor=#d5e8d4;strokeColor=#82b366;" parent="1" vertex="1">
          <mxGeometry x="250" y="240" width="120" height="120" as="geometry" />
        </mxCell>
        <mxCell id="b5ZvEWZHJdZfXE5YK8wL-19" value="" style="rounded=0;orthogonalLoop=1;jettySize=auto;html=1;" parent="1" source="b5ZvEWZHJdZfXE5YK8wL-13" target="b5ZvEWZHJdZfXE5YK8wL-17" edge="1">
          <mxGeometry relative="1" as="geometry" />
        </mxCell>
        <mxCell id="b5ZvEWZHJdZfXE5YK8wL-13" value="&lt;font style=&quot;font-size: 16px;&quot;&gt;$$g_t$$&lt;/font&gt;" style="rounded=1;whiteSpace=wrap;html=1;fillColor=#f8cecc;strokeColor=#b85450;" parent="1" vertex="1">
          <mxGeometry x="549" y="140" width="80" height="40" as="geometry" />
        </mxCell>
        <mxCell id="b5ZvEWZHJdZfXE5YK8wL-22" value="" style="edgeStyle=orthogonalEdgeStyle;rounded=0;orthogonalLoop=1;jettySize=auto;html=1;" parent="1" source="b5ZvEWZHJdZfXE5YK8wL-14" target="b5ZvEWZHJdZfXE5YK8wL-18" edge="1">
          <mxGeometry relative="1" as="geometry" />
        </mxCell>
        <mxCell id="b5ZvEWZHJdZfXE5YK8wL-14" value="&lt;font style=&quot;font-size: 16px;&quot;&gt;$$g_s$$&lt;/font&gt;" style="rounded=1;whiteSpace=wrap;html=1;fillColor=#d5e8d4;strokeColor=#82b366;" parent="1" vertex="1">
          <mxGeometry x="549" y="280" width="80" height="40" as="geometry" />
        </mxCell>
        <mxCell id="b5ZvEWZHJdZfXE5YK8wL-15" value="" style="rounded=1;whiteSpace=wrap;html=1;rotation=90;fillColor=none;dashed=1;dashPattern=12 12;" parent="1" vertex="1">
          <mxGeometry x="579" y="170" width="300" height="120" as="geometry" />
        </mxCell>
        <mxCell id="b5ZvEWZHJdZfXE5YK8wL-16" value="&lt;font style=&quot;font-size: 16px;&quot;&gt;$$z_t^u$$&lt;/font&gt;" style="rounded=1;whiteSpace=wrap;html=1;fillColor=#f8cecc;strokeColor=#b85450;" parent="1" vertex="1">
          <mxGeometry x="689" y="110" width="80" height="40" as="geometry" />
        </mxCell>
        <mxCell id="b5ZvEWZHJdZfXE5YK8wL-17" value="&lt;font style=&quot;font-size: 16px;&quot;&gt;$$z_t^c$$&lt;/font&gt;" style="rounded=1;whiteSpace=wrap;html=1;fillColor=#f8cecc;strokeColor=#b85450;" parent="1" vertex="1">
          <mxGeometry x="689" y="170" width="80" height="40" as="geometry" />
        </mxCell>
        <mxCell id="b5ZvEWZHJdZfXE5YK8wL-18" value="&lt;font style=&quot;font-size: 16px;&quot;&gt;$$z_s$$&lt;/font&gt;" style="rounded=1;whiteSpace=wrap;html=1;fillColor=#d5e8d4;strokeColor=#82b366;" parent="1" vertex="1">
          <mxGeometry x="689" y="280" width="80" height="40" as="geometry" />
        </mxCell>
        <mxCell id="b5ZvEWZHJdZfXE5YK8wL-21" value="" style="rounded=0;orthogonalLoop=1;jettySize=auto;html=1;exitX=1;exitY=0.25;exitDx=0;exitDy=0;" parent="1" source="b5ZvEWZHJdZfXE5YK8wL-13" edge="1">
          <mxGeometry relative="1" as="geometry">
            <mxPoint x="629" y="124" as="sourcePoint" />
            <mxPoint x="689" y="136" as="targetPoint" />
          </mxGeometry>
        </mxCell>
        <mxCell id="b5ZvEWZHJdZfXE5YK8wL-24" value="&lt;font style=&quot;font-size: 16px;&quot;&gt;$$z_t^u$$&lt;/font&gt;" style="rounded=1;whiteSpace=wrap;html=1;fillColor=#f8cecc;strokeColor=#b85450;" parent="1" vertex="1">
          <mxGeometry x="1005" y="210" width="80" height="40" as="geometry" />
        </mxCell>
        <mxCell id="b5ZvEWZHJdZfXE5YK8wL-25" value="&lt;font style=&quot;font-size: 16px;&quot;&gt;$$z_t^c$$&lt;/font&gt;" style="rounded=1;whiteSpace=wrap;html=1;fillColor=#f8cecc;strokeColor=#b85450;" parent="1" vertex="1">
          <mxGeometry x="1005" y="110" width="80" height="40" as="geometry" />
        </mxCell>
        <mxCell id="b5ZvEWZHJdZfXE5YK8wL-26" value="&lt;font style=&quot;font-size: 16px;&quot;&gt;$$z_s$$&lt;/font&gt;" style="rounded=1;whiteSpace=wrap;html=1;fillColor=#d5e8d4;strokeColor=#82b366;" parent="1" vertex="1">
          <mxGeometry x="1005" y="150" width="80" height="40" as="geometry" />
        </mxCell>
        <mxCell id="b5ZvEWZHJdZfXE5YK8wL-30" style="edgeStyle=orthogonalEdgeStyle;rounded=0;orthogonalLoop=1;jettySize=auto;html=1;entryX=0.5;entryY=1;entryDx=0;entryDy=0;" parent="1" source="b5ZvEWZHJdZfXE5YK8wL-27" target="b5ZvEWZHJdZfXE5YK8wL-24" edge="1">
          <mxGeometry relative="1" as="geometry" />
        </mxCell>
        <mxCell id="b5ZvEWZHJdZfXE5YK8wL-27" value="&lt;font style=&quot;font-size: 16px;&quot;&gt;CLS&lt;/font&gt;" style="rounded=1;whiteSpace=wrap;html=1;fillColor=#dae8fc;strokeColor=#6c8ebf;" parent="1" vertex="1">
          <mxGeometry x="1005" y="280" width="80" height="40" as="geometry" />
        </mxCell>
        <mxCell id="b5ZvEWZHJdZfXE5YK8wL-37" value="&lt;font&gt;Multimodal fusion scheme&lt;/font&gt;" style="rounded=1;whiteSpace=wrap;html=1;fillColor=#dae8fc;strokeColor=#6c8ebf;gradientColor=#7ea6e0;" parent="1" vertex="1">
          <mxGeometry x="1163" y="100" width="89" height="240" as="geometry" />
        </mxCell>
        <mxCell id="b5ZvEWZHJdZfXE5YK8wL-40" value="" style="group;rotation=-179;" parent="1" vertex="1" connectable="0">
          <mxGeometry x="980" y="-60" width="60" height="170" as="geometry" />
        </mxCell>
        <mxCell id="b5ZvEWZHJdZfXE5YK8wL-41" value="" style="endArrow=none;html=1;rounded=0;fontStyle=1;edgeStyle=orthogonalEdgeStyle;curved=1;strokeWidth=2;" parent="b5ZvEWZHJdZfXE5YK8wL-40" edge="1">
          <mxGeometry width="50" height="50" relative="1" as="geometry">
            <mxPoint x="173" y="276.25" as="sourcePoint" />
            <mxPoint x="111" y="361.25" as="targetPoint" />
            <Array as="points">
              <mxPoint x="133" y="276.25" />
              <mxPoint x="131" y="361.25" />
            </Array>
          </mxGeometry>
        </mxCell>
        <mxCell id="b5ZvEWZHJdZfXE5YK8wL-42" value="" style="endArrow=none;html=1;rounded=0;edgeStyle=orthogonalEdgeStyle;curved=1;strokeWidth=2;" parent="b5ZvEWZHJdZfXE5YK8wL-40" edge="1">
          <mxGeometry width="50" height="50" relative="1" as="geometry">
            <mxPoint x="173" y="276.25" as="sourcePoint" />
            <mxPoint x="115" y="191.25" as="targetPoint" />
            <Array as="points">
              <mxPoint x="133" y="276.25" />
              <mxPoint x="135" y="191.25" />
            </Array>
          </mxGeometry>
        </mxCell>
        <mxCell id="b5ZvEWZHJdZfXE5YK8wL-48" value="&lt;font style=&quot;font-size: 16px;&quot;&gt;$$z_t^u$$&lt;/font&gt;" style="rounded=1;whiteSpace=wrap;html=1;fillColor=#f8cecc;strokeColor=#b85450;" parent="1" vertex="1">
          <mxGeometry x="920" y="580" width="80" height="40" as="geometry" />
        </mxCell>
        <mxCell id="b5ZvEWZHJdZfXE5YK8wL-72" style="edgeStyle=orthogonalEdgeStyle;rounded=0;orthogonalLoop=1;jettySize=auto;html=1;entryX=0;entryY=0.5;entryDx=0;entryDy=0;exitX=1;exitY=1;exitDx=0;exitDy=0;" parent="1" source="b5ZvEWZHJdZfXE5YK8wL-49" target="b5ZvEWZHJdZfXE5YK8wL-58" edge="1">
          <mxGeometry relative="1" as="geometry">
            <Array as="points">
              <mxPoint x="1027" y="750" />
              <mxPoint x="1027" y="605" />
            </Array>
          </mxGeometry>
        </mxCell>
        <mxCell id="b5ZvEWZHJdZfXE5YK8wL-74" value="&lt;font style=&quot;font-size: 14px;&quot;&gt;&lt;b&gt;K/V&lt;/b&gt;&lt;/font&gt;" style="edgeLabel;html=1;align=center;verticalAlign=middle;resizable=0;points=[];" parent="b5ZvEWZHJdZfXE5YK8wL-72" vertex="1" connectable="0">
          <mxGeometry x="0.2345" relative="1" as="geometry">
            <mxPoint y="16" as="offset" />
          </mxGeometry>
        </mxCell>
        <mxCell id="b5ZvEWZHJdZfXE5YK8wL-49" value="&lt;font style=&quot;font-size: 16px;&quot;&gt;$$z_t^c$$&lt;/font&gt;" style="rounded=1;whiteSpace=wrap;html=1;fillColor=#f8cecc;strokeColor=#b85450;" parent="1" vertex="1">
          <mxGeometry x="920" y="710" width="80" height="40" as="geometry" />
        </mxCell>
        <mxCell id="b5ZvEWZHJdZfXE5YK8wL-50" value="&lt;font style=&quot;font-size: 16px;&quot;&gt;$$z_s$$&lt;/font&gt;" style="rounded=1;whiteSpace=wrap;html=1;fillColor=#d5e8d4;strokeColor=#82b366;" parent="1" vertex="1">
          <mxGeometry x="920" y="750" width="80" height="40" as="geometry" />
        </mxCell>
        <mxCell id="b5ZvEWZHJdZfXE5YK8wL-51" style="edgeStyle=orthogonalEdgeStyle;rounded=0;orthogonalLoop=1;jettySize=auto;html=1;entryX=0.5;entryY=1;entryDx=0;entryDy=0;" parent="1" source="b5ZvEWZHJdZfXE5YK8wL-52" target="b5ZvEWZHJdZfXE5YK8wL-48" edge="1">
          <mxGeometry relative="1" as="geometry" />
        </mxCell>
        <mxCell id="b5ZvEWZHJdZfXE5YK8wL-52" value="&lt;font style=&quot;font-size: 16px;&quot;&gt;CLS&lt;/font&gt;" style="rounded=1;whiteSpace=wrap;html=1;fillColor=#dae8fc;strokeColor=#6c8ebf;" parent="1" vertex="1">
          <mxGeometry x="920" y="640" width="80" height="40" as="geometry" />
        </mxCell>
        <mxCell id="b5ZvEWZHJdZfXE5YK8wL-64" style="edgeStyle=orthogonalEdgeStyle;rounded=0;orthogonalLoop=1;jettySize=auto;html=1;entryX=0.5;entryY=0;entryDx=0;entryDy=0;" parent="1" source="b5ZvEWZHJdZfXE5YK8wL-53" target="b5ZvEWZHJdZfXE5YK8wL-58" edge="1">
          <mxGeometry relative="1" as="geometry" />
        </mxCell>
        <mxCell id="b5ZvEWZHJdZfXE5YK8wL-53" value="&lt;font style=&quot;font-size: 16px;&quot;&gt;Self-attention&lt;/font&gt;" style="rounded=1;whiteSpace=wrap;html=1;" parent="1" vertex="1">
          <mxGeometry x="1055" y="510" width="120" height="50" as="geometry" />
        </mxCell>
        <mxCell id="b5ZvEWZHJdZfXE5YK8wL-66" style="edgeStyle=orthogonalEdgeStyle;rounded=0;orthogonalLoop=1;jettySize=auto;html=1;entryX=0.5;entryY=0;entryDx=0;entryDy=0;" parent="1" source="b5ZvEWZHJdZfXE5YK8wL-56" target="b5ZvEWZHJdZfXE5YK8wL-61" edge="1">
          <mxGeometry relative="1" as="geometry" />
        </mxCell>
        <mxCell id="b5ZvEWZHJdZfXE5YK8wL-56" value="&lt;font style=&quot;font-size: 16px;&quot;&gt;Self-attention&lt;/font&gt;" style="rounded=1;whiteSpace=wrap;html=1;" parent="1" vertex="1">
          <mxGeometry x="1055" y="650" width="120" height="50" as="geometry" />
        </mxCell>
        <mxCell id="b5ZvEWZHJdZfXE5YK8wL-69" style="edgeStyle=orthogonalEdgeStyle;rounded=0;orthogonalLoop=1;jettySize=auto;html=1;" parent="1" source="b5ZvEWZHJdZfXE5YK8wL-57" target="b5ZvEWZHJdZfXE5YK8wL-68" edge="1">
          <mxGeometry relative="1" as="geometry" />
        </mxCell>
        <mxCell id="b5ZvEWZHJdZfXE5YK8wL-57" value="&lt;font style=&quot;font-size: 16px;&quot;&gt;Self-attention&lt;/font&gt;" style="rounded=1;whiteSpace=wrap;html=1;" parent="1" vertex="1">
          <mxGeometry x="1055" y="790" width="120" height="50" as="geometry" />
        </mxCell>
        <mxCell id="b5ZvEWZHJdZfXE5YK8wL-65" style="edgeStyle=orthogonalEdgeStyle;rounded=0;orthogonalLoop=1;jettySize=auto;html=1;entryX=0.5;entryY=0;entryDx=0;entryDy=0;" parent="1" source="b5ZvEWZHJdZfXE5YK8wL-58" target="b5ZvEWZHJdZfXE5YK8wL-56" edge="1">
          <mxGeometry relative="1" as="geometry" />
        </mxCell>
        <mxCell id="b5ZvEWZHJdZfXE5YK8wL-73" style="edgeStyle=orthogonalEdgeStyle;rounded=0;orthogonalLoop=1;jettySize=auto;html=1;entryX=1;entryY=0.5;entryDx=0;entryDy=0;" parent="1" source="b5ZvEWZHJdZfXE5YK8wL-58" target="b5ZvEWZHJdZfXE5YK8wL-61" edge="1">
          <mxGeometry relative="1" as="geometry">
            <mxPoint x="1200" y="750" as="targetPoint" />
            <Array as="points">
              <mxPoint x="1195" y="605" />
              <mxPoint x="1195" y="745" />
            </Array>
          </mxGeometry>
        </mxCell>
        <mxCell id="b5ZvEWZHJdZfXE5YK8wL-75" value="&lt;b style=&quot;font-size: 14px;&quot;&gt;K/V&lt;/b&gt;" style="edgeLabel;html=1;align=center;verticalAlign=middle;resizable=0;points=[];" parent="b5ZvEWZHJdZfXE5YK8wL-73" vertex="1" connectable="0">
          <mxGeometry x="-0.1846" relative="1" as="geometry">
            <mxPoint y="12" as="offset" />
          </mxGeometry>
        </mxCell>
        <mxCell id="b5ZvEWZHJdZfXE5YK8wL-58" value="&lt;font style=&quot;font-size: 16px;&quot;&gt;Cross-attention&lt;/font&gt;" style="rounded=1;whiteSpace=wrap;html=1;fillColor=#fff2cc;strokeColor=#d6b656;gradientColor=#F4FFD3;" parent="1" vertex="1">
          <mxGeometry x="1055" y="580" width="120" height="50" as="geometry" />
        </mxCell>
        <mxCell id="b5ZvEWZHJdZfXE5YK8wL-67" style="edgeStyle=orthogonalEdgeStyle;rounded=0;orthogonalLoop=1;jettySize=auto;html=1;entryX=0.5;entryY=0;entryDx=0;entryDy=0;" parent="1" source="b5ZvEWZHJdZfXE5YK8wL-61" target="b5ZvEWZHJdZfXE5YK8wL-57" edge="1">
          <mxGeometry relative="1" as="geometry" />
        </mxCell>
        <mxCell id="b5ZvEWZHJdZfXE5YK8wL-61" value="&lt;font style=&quot;font-size: 16px;&quot;&gt;Cross-attention&lt;/font&gt;" style="rounded=1;whiteSpace=wrap;html=1;fillColor=#fff2cc;strokeColor=#d6b656;gradientColor=#F4FFD3;" parent="1" vertex="1">
          <mxGeometry x="1055" y="720" width="120" height="50" as="geometry" />
        </mxCell>
        <mxCell id="b5ZvEWZHJdZfXE5YK8wL-62" value="&lt;b style=&quot;font-size: 14px;&quot;&gt;Q&lt;/b&gt;" style="edgeStyle=orthogonalEdgeStyle;rounded=0;orthogonalLoop=1;jettySize=auto;html=1;entryX=0;entryY=0.613;entryDx=0;entryDy=0;entryPerimeter=0;" parent="1" source="b5ZvEWZHJdZfXE5YK8wL-48" target="b5ZvEWZHJdZfXE5YK8wL-53" edge="1">
          <mxGeometry x="0.1807" y="1" relative="1" as="geometry">
            <Array as="points">
              <mxPoint x="960" y="541" />
            </Array>
            <mxPoint as="offset" />
          </mxGeometry>
        </mxCell>
        <mxCell id="b5ZvEWZHJdZfXE5YK8wL-71" style="edgeStyle=orthogonalEdgeStyle;rounded=0;orthogonalLoop=1;jettySize=auto;html=1;entryX=0;entryY=0.5;entryDx=0;entryDy=0;" parent="1" source="b5ZvEWZHJdZfXE5YK8wL-68" target="b5ZvEWZHJdZfXE5YK8wL-70" edge="1">
          <mxGeometry relative="1" as="geometry" />
        </mxCell>
        <mxCell id="b5ZvEWZHJdZfXE5YK8wL-68" value="&lt;font style=&quot;font-size: 16px;&quot;&gt;CLS&lt;/font&gt;" style="rounded=1;whiteSpace=wrap;html=1;fillColor=#dae8fc;strokeColor=#6c8ebf;" parent="1" vertex="1">
          <mxGeometry x="1210" y="795" width="80" height="40" as="geometry" />
        </mxCell>
        <mxCell id="b5ZvEWZHJdZfXE5YK8wL-70" value="Prediction head" style="rounded=1;whiteSpace=wrap;html=1;fillColor=#1ba1e2;fontColor=#ffffff;strokeColor=#006EAF;" parent="1" vertex="1">
          <mxGeometry x="1290" y="610" width="69" height="100" as="geometry" />
        </mxCell>
        <mxCell id="b5ZvEWZHJdZfXE5YK8wL-76" value="&lt;font style=&quot;font-size: 24px;&quot;&gt;Unimodal processing&lt;/font&gt;" style="text;html=1;align=center;verticalAlign=middle;resizable=0;points=[];autosize=1;strokeColor=none;fillColor=none;" parent="1" vertex="1">
          <mxGeometry x="136" width="250" height="40" as="geometry" />
        </mxCell>
        <mxCell id="b5ZvEWZHJdZfXE5YK8wL-77" value="&lt;font style=&quot;font-size: 24px;&quot;&gt;Information decoupling&lt;/font&gt;" style="text;html=1;align=center;verticalAlign=middle;resizable=0;points=[];autosize=1;strokeColor=none;fillColor=none;" parent="1" vertex="1">
          <mxGeometry x="558" width="270" height="40" as="geometry" />
        </mxCell>
        <mxCell id="b5ZvEWZHJdZfXE5YK8wL-78" value="&lt;font style=&quot;font-size: 24px;&quot;&gt;Fusion module&amp;nbsp;&lt;/font&gt;" style="text;html=1;align=center;verticalAlign=middle;resizable=0;points=[];autosize=1;strokeColor=none;fillColor=none;" parent="1" vertex="1">
          <mxGeometry x="1035" width="190" height="40" as="geometry" />
        </mxCell>
        <mxCell id="b5ZvEWZHJdZfXE5YK8wL-79" value="" style="rounded=0;whiteSpace=wrap;html=1;fillColor=none;dashed=1;dashPattern=12 12;strokeWidth=3;" parent="1" vertex="1">
          <mxGeometry x="471" y="-9" width="450" height="450" as="geometry" />
        </mxCell>
        <mxCell id="b5ZvEWZHJdZfXE5YK8wL-85" value="&lt;font style=&quot;font-size: 16px;&quot;&gt;$$z_t^u$$&lt;/font&gt;" style="rounded=1;whiteSpace=wrap;html=1;fillColor=#f8cecc;strokeColor=#b85450;" parent="1" vertex="1">
          <mxGeometry x="-3" y="675.5" width="80" height="40" as="geometry" />
        </mxCell>
        <mxCell id="b5ZvEWZHJdZfXE5YK8wL-86" value="&lt;font style=&quot;font-size: 16px;&quot;&gt;$$z_t^c$$&lt;/font&gt;" style="rounded=1;whiteSpace=wrap;html=1;fillColor=#f8cecc;strokeColor=#b85450;" parent="1" vertex="1">
          <mxGeometry x="-3" y="595.5" width="80" height="40" as="geometry" />
        </mxCell>
        <mxCell id="b5ZvEWZHJdZfXE5YK8wL-87" value="&lt;font style=&quot;font-size: 16px;&quot;&gt;$$z_s$$&lt;/font&gt;" style="rounded=1;whiteSpace=wrap;html=1;fillColor=#d5e8d4;strokeColor=#82b366;" parent="1" vertex="1">
          <mxGeometry x="-3" y="635.5" width="80" height="40" as="geometry" />
        </mxCell>
        <mxCell id="b5ZvEWZHJdZfXE5YK8wL-88" style="edgeStyle=orthogonalEdgeStyle;rounded=0;orthogonalLoop=1;jettySize=auto;html=1;entryX=0.5;entryY=1;entryDx=0;entryDy=0;" parent="1" source="b5ZvEWZHJdZfXE5YK8wL-89" target="b5ZvEWZHJdZfXE5YK8wL-85" edge="1">
          <mxGeometry relative="1" as="geometry" />
        </mxCell>
        <mxCell id="b5ZvEWZHJdZfXE5YK8wL-89" value="&lt;font style=&quot;font-size: 16px;&quot;&gt;CLS&lt;/font&gt;" style="rounded=1;whiteSpace=wrap;html=1;fillColor=#dae8fc;strokeColor=#6c8ebf;" parent="1" vertex="1">
          <mxGeometry x="-3" y="735.5" width="80" height="40" as="geometry" />
        </mxCell>
        <mxCell id="b5ZvEWZHJdZfXE5YK8wL-99" style="edgeStyle=orthogonalEdgeStyle;rounded=0;orthogonalLoop=1;jettySize=auto;html=1;entryX=0;entryY=0.5;entryDx=0;entryDy=0;exitX=0.643;exitY=0.996;exitDx=0;exitDy=0;exitPerimeter=0;" parent="1" source="b5ZvEWZHJdZfXE5YK8wL-124" target="b5ZvEWZHJdZfXE5YK8wL-97" edge="1">
          <mxGeometry relative="1" as="geometry">
            <mxPoint x="675" y="782.5" as="sourcePoint" />
            <Array as="points">
              <mxPoint x="715" y="817.5" />
            </Array>
          </mxGeometry>
        </mxCell>
        <mxCell id="b5ZvEWZHJdZfXE5YK8wL-90" value="&lt;font style=&quot;font-size: 15px;&quot;&gt;FT-Transformer Encoder&lt;/font&gt;" style="rounded=1;whiteSpace=wrap;html=1;fillColor=#dae8fc;strokeColor=#6c8ebf;gradientColor=#7ea6e0;" parent="1" vertex="1">
          <mxGeometry x="127" y="610.5" width="140" height="150" as="geometry" />
        </mxCell>
        <mxCell id="b5ZvEWZHJdZfXE5YK8wL-96" style="edgeStyle=orthogonalEdgeStyle;rounded=0;orthogonalLoop=1;jettySize=auto;html=1;entryX=0;entryY=0.5;entryDx=0;entryDy=0;" parent="1" source="b5ZvEWZHJdZfXE5YK8wL-97" target="b5ZvEWZHJdZfXE5YK8wL-98" edge="1">
          <mxGeometry relative="1" as="geometry" />
        </mxCell>
        <mxCell id="b5ZvEWZHJdZfXE5YK8wL-97" value="&lt;font style=&quot;font-size: 16px;&quot;&gt;CLS&lt;/font&gt;" style="rounded=1;whiteSpace=wrap;html=1;fillColor=#dae8fc;strokeColor=#6c8ebf;" parent="1" vertex="1">
          <mxGeometry x="744" y="797.5" width="80" height="40" as="geometry" />
        </mxCell>
        <mxCell id="b5ZvEWZHJdZfXE5YK8wL-98" value="Prediction head" style="rounded=1;whiteSpace=wrap;html=1;fillColor=#1ba1e2;fontColor=#ffffff;strokeColor=#006EAF;" parent="1" vertex="1">
          <mxGeometry x="804" y="612.5" width="69" height="100" as="geometry" />
        </mxCell>
        <mxCell id="b5ZvEWZHJdZfXE5YK8wL-105" value="" style="group;rotation=-179;" parent="1" vertex="1" connectable="0">
          <mxGeometry x="87" y="655.5" width="30" height="80" as="geometry" />
        </mxCell>
        <mxCell id="b5ZvEWZHJdZfXE5YK8wL-106" value="" style="endArrow=none;html=1;rounded=0;fontStyle=1;edgeStyle=orthogonalEdgeStyle;curved=1;strokeWidth=2;" parent="b5ZvEWZHJdZfXE5YK8wL-105" edge="1">
          <mxGeometry width="50" height="50" relative="1" as="geometry">
            <mxPoint x="30" y="40" as="sourcePoint" />
            <mxPoint x="-1" y="80" as="targetPoint" />
            <Array as="points">
              <mxPoint x="10" y="40" />
              <mxPoint x="9" y="80" />
            </Array>
          </mxGeometry>
        </mxCell>
        <mxCell id="b5ZvEWZHJdZfXE5YK8wL-107" value="" style="endArrow=none;html=1;rounded=0;edgeStyle=orthogonalEdgeStyle;curved=1;strokeWidth=2;" parent="b5ZvEWZHJdZfXE5YK8wL-105" edge="1">
          <mxGeometry width="50" height="50" relative="1" as="geometry">
            <mxPoint x="30" y="40" as="sourcePoint" />
            <mxPoint x="1" as="targetPoint" />
            <Array as="points">
              <mxPoint x="10" y="40" />
              <mxPoint x="11" />
            </Array>
          </mxGeometry>
        </mxCell>
        <mxCell id="b5ZvEWZHJdZfXE5YK8wL-108" value="" style="endArrow=none;dashed=1;html=1;dashPattern=1 3;strokeWidth=2;rounded=0;" parent="1" edge="1">
          <mxGeometry width="50" height="50" relative="1" as="geometry">
            <mxPoint x="410" y="875.5" as="sourcePoint" />
            <mxPoint x="410" y="515.5" as="targetPoint" />
          </mxGeometry>
        </mxCell>
        <mxCell id="b5ZvEWZHJdZfXE5YK8wL-109" value="" style="endArrow=none;dashed=1;html=1;dashPattern=1 3;strokeWidth=2;rounded=0;" parent="1" edge="1">
          <mxGeometry width="50" height="50" relative="1" as="geometry">
            <mxPoint x="896" y="880" as="sourcePoint" />
            <mxPoint x="896" y="520" as="targetPoint" />
          </mxGeometry>
        </mxCell>
        <mxCell id="b5ZvEWZHJdZfXE5YK8wL-117" value="&lt;font style=&quot;font-size: 16px;&quot;&gt;$$z_t^u$$&lt;/font&gt;" style="rounded=1;whiteSpace=wrap;html=1;fillColor=#f8cecc;strokeColor=#b85450;" parent="1" vertex="1">
          <mxGeometry x="445" y="580" width="80" height="40" as="geometry" />
        </mxCell>
        <mxCell id="b5ZvEWZHJdZfXE5YK8wL-118" value="&lt;font style=&quot;font-size: 16px;&quot;&gt;$$z_t^c$$&lt;/font&gt;" style="rounded=1;whiteSpace=wrap;html=1;fillColor=#f8cecc;strokeColor=#b85450;" parent="1" vertex="1">
          <mxGeometry x="445" y="730" width="80" height="40" as="geometry" />
        </mxCell>
        <mxCell id="b5ZvEWZHJdZfXE5YK8wL-119" value="&lt;font style=&quot;font-size: 16px;&quot;&gt;$$z_s$$&lt;/font&gt;" style="rounded=1;whiteSpace=wrap;html=1;fillColor=#d5e8d4;strokeColor=#82b366;" parent="1" vertex="1">
          <mxGeometry x="445" y="770" width="80" height="40" as="geometry" />
        </mxCell>
        <mxCell id="b5ZvEWZHJdZfXE5YK8wL-121" value="&lt;font style=&quot;font-size: 16px;&quot;&gt;CLS&lt;/font&gt;" style="rounded=1;whiteSpace=wrap;html=1;fillColor=#dae8fc;strokeColor=#6c8ebf;" parent="1" vertex="1">
          <mxGeometry x="445" y="620" width="80" height="40" as="geometry" />
        </mxCell>
        <mxCell id="b5ZvEWZHJdZfXE5YK8wL-125" style="edgeStyle=orthogonalEdgeStyle;rounded=0;orthogonalLoop=1;jettySize=auto;html=1;exitX=0.997;exitY=0.309;exitDx=0;exitDy=0;entryX=0.5;entryY=0;entryDx=0;entryDy=0;exitPerimeter=0;" parent="1" source="b5ZvEWZHJdZfXE5YK8wL-122" target="b5ZvEWZHJdZfXE5YK8wL-124" edge="1">
          <mxGeometry relative="1" as="geometry">
            <Array as="points">
              <mxPoint x="695" y="600" />
            </Array>
          </mxGeometry>
        </mxCell>
        <mxCell id="b5ZvEWZHJdZfXE5YK8wL-122" value="&lt;font style=&quot;font-size: 10px;&quot;&gt;Tiny FT-Transformer Encoder&lt;/font&gt;" style="rounded=1;whiteSpace=wrap;html=1;fillColor=#dae8fc;strokeColor=#6c8ebf;gradientColor=#7ea6e0;" parent="1" vertex="1">
          <mxGeometry x="545" y="560" width="60" height="130" as="geometry" />
        </mxCell>
        <mxCell id="b5ZvEWZHJdZfXE5YK8wL-126" style="edgeStyle=orthogonalEdgeStyle;rounded=0;orthogonalLoop=1;jettySize=auto;html=1;entryX=0.5;entryY=1;entryDx=0;entryDy=0;" parent="1" source="b5ZvEWZHJdZfXE5YK8wL-123" target="b5ZvEWZHJdZfXE5YK8wL-124" edge="1">
          <mxGeometry relative="1" as="geometry">
            <Array as="points">
              <mxPoint x="695" y="790" />
            </Array>
          </mxGeometry>
        </mxCell>
        <mxCell id="b5ZvEWZHJdZfXE5YK8wL-123" value="&lt;font style=&quot;font-size: 10px;&quot;&gt;Tiny FT-Transformer Encoder&lt;/font&gt;" style="rounded=1;whiteSpace=wrap;html=1;fillColor=#dae8fc;strokeColor=#6c8ebf;gradientColor=#7ea6e0;" parent="1" vertex="1">
          <mxGeometry x="545" y="705" width="60" height="130" as="geometry" />
        </mxCell>
        <mxCell id="b5ZvEWZHJdZfXE5YK8wL-124" value="&lt;font style=&quot;font-size: 15px;&quot;&gt;LXMERT Encoder&lt;/font&gt;" style="rounded=1;whiteSpace=wrap;html=1;fillColor=#dae8fc;strokeColor=#6c8ebf;gradientColor=#7ea6e0;" parent="1" vertex="1">
          <mxGeometry x="625" y="620" width="140" height="150" as="geometry" />
        </mxCell>
        <mxCell id="b5ZvEWZHJdZfXE5YK8wL-128" style="edgeStyle=orthogonalEdgeStyle;rounded=0;orthogonalLoop=1;jettySize=auto;html=1;entryX=0.034;entryY=0.465;entryDx=0;entryDy=0;entryPerimeter=0;exitX=0.954;exitY=0.995;exitDx=0;exitDy=0;exitPerimeter=0;" parent="1" source="b5ZvEWZHJdZfXE5YK8wL-117" target="b5ZvEWZHJdZfXE5YK8wL-122" edge="1">
          <mxGeometry relative="1" as="geometry">
            <mxPoint x="535" y="622.5" as="targetPoint" />
            <Array as="points">
              <mxPoint x="525" y="619.5" />
              <mxPoint x="547" y="619.5" />
            </Array>
          </mxGeometry>
        </mxCell>
        <mxCell id="b5ZvEWZHJdZfXE5YK8wL-129" style="edgeStyle=orthogonalEdgeStyle;rounded=0;orthogonalLoop=1;jettySize=auto;html=1;entryX=0;entryY=0.5;entryDx=0;entryDy=0;exitX=0.961;exitY=-0.004;exitDx=0;exitDy=0;exitPerimeter=0;" parent="1" source="b5ZvEWZHJdZfXE5YK8wL-119" target="b5ZvEWZHJdZfXE5YK8wL-123" edge="1">
          <mxGeometry relative="1" as="geometry">
            <mxPoint x="523.1400000000001" y="766.2299999999998" as="sourcePoint" />
            <mxPoint x="544.96" y="768.01" as="targetPoint" />
            <Array as="points">
              <mxPoint x="535" y="769.5" />
              <mxPoint x="535" y="770.5" />
            </Array>
          </mxGeometry>
        </mxCell>
        <mxCell id="b5ZvEWZHJdZfXE5YK8wL-130" value="a" style="ellipse;whiteSpace=wrap;html=1;aspect=fixed;" parent="1" vertex="1">
          <mxGeometry x="190" y="520" width="30" height="30" as="geometry" />
        </mxCell>
        <mxCell id="b5ZvEWZHJdZfXE5YK8wL-131" value="b" style="ellipse;whiteSpace=wrap;html=1;aspect=fixed;" parent="1" vertex="1">
          <mxGeometry x="662" y="520" width="26" height="26" as="geometry" />
        </mxCell>
        <mxCell id="b5ZvEWZHJdZfXE5YK8wL-132" value="c" style="ellipse;whiteSpace=wrap;html=1;aspect=fixed;" parent="1" vertex="1">
          <mxGeometry x="1310" y="520" width="26" height="26" as="geometry" />
        </mxCell>
        <mxCell id="4vkai-O_3Yje3W-FTh2t-1" style="edgeStyle=orthogonalEdgeStyle;rounded=0;orthogonalLoop=1;jettySize=auto;html=1;entryX=0;entryY=0.5;entryDx=0;entryDy=0;exitX=0.5;exitY=1;exitDx=0;exitDy=0;" edge="1" parent="1" target="4vkai-O_3Yje3W-FTh2t-3" source="b5ZvEWZHJdZfXE5YK8wL-90">
          <mxGeometry relative="1" as="geometry">
            <mxPoint x="228" y="767" as="sourcePoint" />
            <Array as="points">
              <mxPoint x="197" y="815.5" />
            </Array>
          </mxGeometry>
        </mxCell>
        <mxCell id="4vkai-O_3Yje3W-FTh2t-2" style="edgeStyle=orthogonalEdgeStyle;rounded=0;orthogonalLoop=1;jettySize=auto;html=1;entryX=0;entryY=0.5;entryDx=0;entryDy=0;" edge="1" parent="1" source="4vkai-O_3Yje3W-FTh2t-3" target="4vkai-O_3Yje3W-FTh2t-4">
          <mxGeometry relative="1" as="geometry" />
        </mxCell>
        <mxCell id="4vkai-O_3Yje3W-FTh2t-3" value="&lt;font style=&quot;font-size: 16px;&quot;&gt;CLS&lt;/font&gt;" style="rounded=1;whiteSpace=wrap;html=1;fillColor=#dae8fc;strokeColor=#6c8ebf;" vertex="1" parent="1">
          <mxGeometry x="257" y="795" width="80" height="40" as="geometry" />
        </mxCell>
        <mxCell id="4vkai-O_3Yje3W-FTh2t-4" value="Prediction head" style="rounded=1;whiteSpace=wrap;html=1;fillColor=#1ba1e2;fontColor=#ffffff;strokeColor=#006EAF;" vertex="1" parent="1">
          <mxGeometry x="317" y="610" width="69" height="100" as="geometry" />
        </mxCell>
      </root>
    </mxGraphModel>
  </diagram>
</mxfile>
